<?xml version="1.0" encoding="UTF-8"?><svg xmlns="http://www.w3.org/2000/svg" viewBox="0 0 1000 1000"><defs><style>.cls-1{opacity:.4;}.cls-1,.cls-2,.cls-3,.cls-4,.cls-5,.cls-6,.cls-7,.cls-8,.cls-9,.cls-10,.cls-11,.cls-12,.cls-13,.cls-14,.cls-15,.cls-16,.cls-17,.cls-18,.cls-19{stroke-width:0px;}.cls-1,.cls-10,.cls-16{fill:#fff;}.cls-2{fill:#407bff;}.cls-20,.cls-17{opacity:.5;}.cls-3{fill:#e6e6e6;}.cls-4{opacity:.3;}.cls-5{fill:#e0e0e0;}.cls-6{fill:#f5f5f5;}.cls-7{fill:#f0f0f0;}.cls-8{opacity:.2;}.cls-9{fill:#aa8383;}.cls-11{fill:#7f3e3b;}.cls-12{fill:#fafafa;}.cls-13{fill:#f0f9ff;}.cls-14{fill:#263238;}.cls-15{fill:#b78b8b;}.cls-16{opacity:.7;}.cls-18{fill:#ebebeb;}.cls-19{fill:#e0f2fe;}</style></defs><g id="Background_Complete"><rect class="cls-2" x="-5.98" y="811.09" width="1027.84" height=".51"/><rect class="cls-2" x="804.69" y="834.64" width="104.64" height=".51"/><rect class="cls-2" x="101.86" y="828.54" width="97.04" height=".51"/><rect class="cls-2" x="772.73" y="825.09" width="39.45" height=".51"/><rect class="cls-2" x="645.95" y="838.72" width="28.95" height=".51"/><rect class="cls-2" x="554.79" y="838.72" width="72.86" height=".51"/><rect class="cls-2" x="395.33" y="830.04" width="117.14" height=".51"/><path class="cls-2" d="M481.24,719.41H84.29c-6.47,0-11.73-5.26-11.73-11.73V149.7c0-6.47,5.26-11.73,11.73-11.73h396.95c6.47,0,11.73,5.26,11.73,11.73v557.98c0,6.47-5.26,11.73-11.73,11.73ZM84.29,138.48c-6.19,0-11.22,5.03-11.22,11.22v557.98c0,6.19,5.03,11.22,11.22,11.22h396.95c6.19,0,11.22-5.03,11.22-11.22V149.7c0-6.19-5.03-11.22-11.22-11.22H84.29Z"/><path class="cls-2" d="M925.88,719.41h-396.95c-6.47,0-11.73-5.26-11.73-11.73V149.7c0-6.47,5.26-11.73,11.73-11.73h396.95c6.47,0,11.73,5.26,11.73,11.73v557.98c0,6.47-5.26,11.73-11.73,11.73ZM528.93,138.48c-6.19,0-11.22,5.03-11.22,11.22v557.98c0,6.19,5.03,11.22,11.22,11.22h396.95c6.19,0,11.22-5.03,11.22-11.22V149.7c0-6.19-5.03-11.22-11.22-11.22h-396.95Z"/><rect class="cls-3" x="670.64" y="452.6" width="61.64" height="179.68" transform="translate(1402.92 1084.89) rotate(180)"/><rect class="cls-6" x="732.28" y="452.6" width="127.8" height="179.68"/><rect class="cls-7" x="823.08" y="563.42" width="37" height="24.41" transform="translate(1683.16 1151.26) rotate(180)"/><rect class="cls-7" x="823.08" y="594.61" width="37" height="24.41" transform="translate(1683.16 1213.63) rotate(180)"/><rect class="cls-5" x="667.92" y="443.49" width="63.41" height="9.11" transform="translate(1399.25 896.09) rotate(180)"/><rect class="cls-7" x="731.33" y="443.49" width="131.47" height="9.11"/><rect class="cls-13" x="624.21" y="644.95" width="85.7" height="166.14" transform="translate(1334.11 1456.04) rotate(180)"/><rect class="cls-6" x="709.9" y="644.95" width="177.68" height="166.14"/><rect class="cls-7" x="724.35" y="663.97" width="61.4" height="54.1" transform="translate(1510.11 1382.05) rotate(180)"/><rect class="cls-7" x="724.35" y="733.08" width="61.4" height="54.1" transform="translate(1510.11 1520.26) rotate(180)"/><rect class="cls-5" x="620.43" y="632.28" width="88.16" height="12.67" transform="translate(1329.01 1277.23) rotate(180)"/><rect class="cls-7" x="708.58" y="632.28" width="182.79" height="12.67"/><rect class="cls-19" x="363.59" y="187.9" width="164.82" height="623.2"/><rect class="cls-12" x="147" y="428.21" width="597.99" height="142.57" transform="translate(945.49 53.5) rotate(90)"/><rect class="cls-18" x="193.83" y="187.9" width="164.82" height="623.2"/><rect class="cls-5" x="358.64" y="190.35" width="4.94" height="618.3" transform="translate(722.23 998.99) rotate(180)"/><rect class="cls-12" x="-22.76" y="428.21" width="597.99" height="142.57" transform="translate(775.73 223.26) rotate(90)"/><rect class="cls-19" x="116.38" y="177.63" width="489.46" height="5.6" rx="1.2" ry="1.2"/><rect class="cls-5" x="440.04" y="135.16" width="11.9" height="142.57" transform="translate(652.44 -239.55) rotate(90)"/><rect class="cls-13" x="386.11" y="189.1" width="119.77" height="142.57" transform="translate(706.37 -185.61) rotate(90)"/><rect class="cls-5" x="145.32" y="260.13" width="261.82" height="142.57" transform="translate(607.64 55.18) rotate(90)"/><g class="cls-20"><rect class="cls-19" x="500.94" y="164.56" width="47.12" height="638.87"/><rect class="cls-13" x="513.38" y="164.56" width="22.24" height="638.87"/><rect class="cls-19" x="526.22" y="164.56" width="47.12" height="638.87"/><rect class="cls-7" x="538.65" y="164.56" width="22.24" height="638.87"/><rect class="cls-19" x="549.77" y="164.56" width="47.12" height="638.87"/></g><g class="cls-20"><rect class="cls-19" x="123.9" y="164.56" width="140.8" height="638.87"/><rect class="cls-19" x="161.06" y="164.56" width="66.47" height="638.87"/><rect class="cls-19" x="199.43" y="164.56" width="140.8" height="638.87"/><rect class="cls-19" x="236.6" y="164.56" width="66.47" height="638.87"/><rect class="cls-19" x="269.83" y="164.56" width="140.8" height="638.87"/></g><rect class="cls-12" x="684.84" y="190.4" width="180.74" height="182.63" transform="translate(1550.42 563.43) rotate(180)"/><path class="cls-7" d="M735.39,236.25h79.64c2.86,0,5.18,2.32,5.18,5.18v80.58c0,2.86-2.32,5.18-5.18,5.18h-79.64c-2.86,0-5.18-2.32-5.18-5.18v-80.58c0-2.86,2.32-5.18,5.18-5.18Z" transform="translate(1550.42 563.43) rotate(180)"/><rect class="cls-10" x="774.45" y="219.25" width="62.9" height="63.56" rx="3.62" ry="3.62" transform="translate(1611.8 502.06) rotate(180)"/><rect class="cls-7" x="736.89" y="306.98" width="43.63" height="44.09" rx="2.51" ry="2.51" transform="translate(1517.4 658.06) rotate(180)"/><rect class="cls-7" x="674.75" y="190.4" width="10.09" height="182.63"/></g><g id="Shadow"><ellipse id="_Path_" class="cls-6" cx="507.94" cy="880.66" rx="398.57" ry="23.28"/></g><g id="Application"><path class="cls-2" d="M782.93,261.68l-2.11-.13c.51-8.21-2.25-15.97-7.77-21.84-5.51-5.86-13.06-9.08-21.25-9.08h-37.18v-2.11h37.18c8.78,0,16.88,3.46,22.79,9.75,5.92,6.3,8.89,14.62,8.34,23.42Z"/><rect class="cls-2" x="770.59" y="284.97" width="19.57" height="2.11" transform="translate(447.58 1047.63) rotate(-86.53)"/><path class="cls-2" d="M719.17,764.58h-247.6c-13.93,0-24.62-11.4-23.76-25.32l29.5-478.03c.86-13.93,12.96-25.32,26.89-25.32h247.6c13.93,0,24.62,11.4,23.76,25.32l-29.5,478.03c-.86,13.93-12.96,25.32-26.89,25.32Z"/><path class="cls-8" d="M571.19,344.79h-54.02c-7.99,0-14.12-6.54-13.63-14.53l2.77-44.95c.49-7.99,7.43-14.53,15.42-14.53h54.02c7.99,0,14.12,6.54,13.63,14.53l-2.77,44.95c-.49,7.99-7.43,14.53-15.42,14.53Z"/><path class="cls-8" d="M586.88,722.47c4.48,0,8.34-3.64,8.62-8.12l5.72-92.65c.28-4.49-3.13-8.12-7.62-8.12h-138.03l-6.72,108.89h138.03Z"/><path class="cls-2" d="M442.47,571.71h-42.22c-3.11,0-5.79,2.52-5.98,5.63l-2.94,47.66c-.19,3.11,2.17,5.63,5.28,5.63h42.22c3.11,0,5.79-2.52,5.98-5.63l2.94-47.66c.19-3.11-2.17-5.63-5.28-5.63Z"/><path class="cls-1" d="M442.47,571.71h-42.22c-3.11,0-5.79,2.52-5.98,5.63l-2.94,47.66c-.19,3.11,2.17,5.63,5.28,5.63h42.22c3.11,0,5.79-2.52,5.98-5.63l2.94-47.66c.19-3.11-2.17-5.63-5.28-5.63Z"/><path class="cls-10" d="M751.28,246.45c3.91,0,7.5,1.52,10.08,4.27,2.6,2.76,3.89,6.44,3.65,10.37l-10.86,175.92c-.21,3.37-3.12,6.11-6.48,6.11h-265.18c-1.57,0-3-.6-4.03-1.7-1.03-1.1-1.55-2.57-1.45-4.15l10.86-175.92c.51-8.22,7.6-14.9,15.82-14.9h247.6M751.28,244.34h-247.6c-9.32,0-17.35,7.56-17.92,16.88l-10.86,175.92c-.28,4.47,3.12,8.09,7.59,8.09h265.18c4.47,0,8.31-3.62,8.59-8.09l10.86-175.92c.58-9.32-6.52-16.88-15.84-16.88h0Z"/><path class="cls-10" d="M618.62,465.91h-134.84c-5.89,0-10.95,4.77-11.32,10.66l-5.56,90.18c-.36,5.89,4.11,10.66,10,10.66h134.84c5.89,0,10.95-4.77,11.32-10.66l5.56-90.18c.36-5.89-4.11-10.66-10-10.66Z"/><path class="cls-10" d="M578.19,596.72h-134.84c-5.89,0-10.95,4.77-11.32,10.66l-5.56,90.18c-.36,5.89,4.11,10.66,10,10.66h134.84c5.89,0,10.95-4.77,11.32-10.66l5.57-90.18c.36-5.89-4.11-10.66-10-10.66Z"/><path class="cls-8" d="M685.75,532.74c-5.11,0-9.5,4.14-9.82,9.25l-4.83,78.23c-.32,5.11,3.57,9.25,8.67,9.25h73.05l5.97-96.72h-73.05Z"/><path class="cls-2" d="M786.58,515.62h-118.47c-5.17,0-9.62,4.19-9.94,9.36l-4.89,79.23c-.32,5.17,3.61,9.36,8.79,9.36h118.47c5.17,0,9.62-4.19,9.94-9.36l4.89-79.23c.32-5.17-3.61-9.36-8.79-9.36Z"/><path class="cls-16" d="M786.58,515.62h-118.47c-5.17,0-9.62,4.19-9.94,9.36l-4.89,79.23c-.32,5.17,3.61,9.36,8.79,9.36h118.47c5.17,0,9.62-4.19,9.94-9.36l4.89-79.23c.32-5.17-3.61-9.36-8.79-9.36Z"/><path class="cls-2" d="M875.08,387.6h-70.2c-5.17,0-9.62,4.19-9.94,9.36l-4.89,79.23c-.32,5.17,3.61,9.36,8.79,9.36h70.2c5.17,0,9.62-4.19,9.94-9.36l4.89-79.23c.32-5.17-3.61-9.36-8.79-9.36Z"/><path class="cls-16" d="M875.08,387.6h-70.2c-5.17,0-9.62,4.19-9.94,9.36l-4.89,79.23c-.32,5.17,3.61,9.36,8.79,9.36h70.2c5.17,0,9.62-4.19,9.94-9.36l4.89-79.23c.32-5.17-3.61-9.36-8.79-9.36Z"/><path class="cls-2" d="M811.25,632.09h-29.21c-2.15,0-4,1.74-4.14,3.9l-2.03,32.97c-.13,2.15,1.5,3.9,3.66,3.9h29.21c2.15,0,4-1.74,4.14-3.9l2.03-32.97c.13-2.15-1.5-3.9-3.66-3.9Z"/><path class="cls-1" d="M811.25,632.09h-29.21c-2.15,0-4,1.74-4.14,3.9l-2.03,32.97c-.13,2.15,1.5,3.9,3.66,3.9h29.21c2.15,0,4-1.74,4.14-3.9l2.03-32.97c.13-2.15-1.5-3.9-3.66-3.9Z"/><ellipse class="cls-2" cx="615.7" cy="435.15" rx="78.59" ry="73.89" transform="translate(-129.24 551.35) rotate(-44.12)"/><ellipse class="cls-10" cx="615.7" cy="435.15" rx="71.45" ry="67.17" transform="translate(-129.24 551.34) rotate(-44.12)"/><path class="cls-2" d="M642.37,416.56c-.87,14.1-13,25.52-27.1,25.52s-24.82-11.43-23.95-25.52c.87-14.1,13-25.52,27.1-25.52s24.82,11.43,23.95,25.52Z"/><path class="cls-2" d="M614.62,452.53c-19.89,0-37.71,7.76-47.5,19.22,9.07,14.93,25.47,24.75,44.78,24.75s36.93-9.81,47.84-24.75c-8.35-11.47-25.23-19.22-45.13-19.22Z"/><path class="cls-10" d="M561.29,334.89h-54.02c-7.99,0-14.12-6.54-13.63-14.53l2.77-44.95c.49-7.99,7.43-14.53,15.42-14.53h54.02c7.99,0,14.12,6.54,13.63,14.53l-2.77,44.95c-.49,7.99-7.43,14.53-15.42,14.53Z"/><polygon class="cls-2" points="551.6 297.89 524.38 279.72 522.14 316.07 551.6 297.89"/><path class="cls-10" d="M736.46,300.92h-128.93c-3.39,0-6-2.78-5.79-6.17l.48-7.85c.21-3.39,3.16-6.17,6.55-6.17h128.93c3.39,0,6,2.78,5.79,6.17l-.48,7.85c-.21,3.39-3.16,6.17-6.55,6.17Z"/><path class="cls-10" d="M734.36,334.85h-128.93c-3.39,0-6-2.78-5.79-6.17l.48-7.85c.21-3.39,3.16-6.17,6.55-6.17h128.93c3.39,0,6,2.78,5.79,6.17l-.48,7.85c-.21,3.39-3.16,6.17-6.55,6.17Z"/><path class="cls-10" d="M777.07,546.64h-103.3c-2.25,0-3.97-1.83-3.83-4.08l.18-2.93c.14-2.25,2.08-4.08,4.33-4.08h103.3c2.25,0,3.97,1.83,3.83,4.08l-.18,2.93c-.14,2.25-2.08,4.08-4.33,4.08Z"/><path class="cls-10" d="M775.62,570.15h-103.3c-2.25,0-3.97-1.83-3.83-4.08l.18-2.93c.14-2.25,2.08-4.08,4.33-4.08h103.3c2.25,0,3.97,1.83,3.83,4.08l-.18,2.93c-.14,2.25-2.08,4.08-4.33,4.08Z"/><path class="cls-10" d="M774.17,593.66h-103.3c-2.25,0-3.97-1.83-3.83-4.08l.18-2.93c.14-2.25,2.08-4.08,4.33-4.08h103.3c2.25,0,3.97,1.83,3.83,4.08l-.18,2.93c-.14,2.25-2.08,4.08-4.33,4.08Z"/><path class="cls-10" d="M717.77,736.06c-.34,5.47-5.05,9.91-10.52,9.91s-9.63-4.44-9.29-9.91c.34-5.47,5.05-9.91,10.52-9.91s9.63,4.44,9.29,9.91Z"/><path class="cls-10" d="M719.93,700.96c-.34,5.47-5.05,9.91-10.52,9.91s-9.63-4.44-9.29-9.91c.34-5.47,5.05-9.91,10.52-9.91s9.63,4.44,9.29,9.91Z"/><path class="cls-10" d="M722.1,665.85c-.34,5.47-5.05,9.91-10.52,9.91s-9.63-4.44-9.29-9.91c.34-5.47,5.05-9.91,10.52-9.91s9.63,4.44,9.29,9.91Z"/><path class="cls-10" d="M687.86,736.06c-.34,5.47-5.05,9.91-10.52,9.91s-9.63-4.44-9.29-9.91c.34-5.47,5.05-9.91,10.52-9.91s9.63,4.44,9.29,9.91Z"/><path class="cls-10" d="M690.02,700.96c-.34,5.47-5.05,9.91-10.52,9.91s-9.63-4.44-9.29-9.91c.34-5.47,5.05-9.91,10.52-9.91s9.63,4.44,9.29,9.91Z"/><path class="cls-10" d="M692.19,665.85c-.34,5.47-5.05,9.91-10.52,9.91s-9.63-4.44-9.29-9.91c.34-5.47,5.05-9.91,10.52-9.91s9.63,4.44,9.29,9.91Z"/></g><g id="Character"><path class="cls-11" d="M276.05,439.94l11.61,9.04-15.34,8.08s-7.18-7.72-3.53-14.28l7.26-2.83Z"/><path class="cls-11" d="M288.17,464.68l-7.05,2.13c-2.24.68-4.64-.42-5.59-2.56l-3.21-7.2,15.34-8.08,3.53,9.65c.92,2.51-.46,5.28-3.02,6.05Z"/><path class="cls-2" d="M324.81,357.1l-6.2,3.85c-2.11,1.32-4.22,2.68-6.3,4.07-4.16,2.77-8.31,5.57-12.34,8.47-8.03,5.8-15.82,11.93-22.4,18.54l-1.24,1.24-.31.31c-.13.14,0,0-.03,0,.02-.07.03-.09.03-.12-.02-.11-.23.16-.44.63-.45.96-.86,2.76-1.04,4.73-.35,4.02-.18,8.82.34,13.62.96,9.67,2.97,19.86,4.95,29.76l-11.73,4.44c-2.65-4.93-4.83-9.8-6.87-14.9-2.03-5.08-3.8-10.29-5.28-15.74-1.39-5.48-2.64-11.12-2.84-17.58-.07-3.25.02-6.72,1.06-10.78.56-2.03,1.34-4.22,2.75-6.52.36-.57.72-1.14,1.17-1.71l.59-.76.35-.42,1.4-1.67c1.84-2.28,3.79-4.35,5.73-6.46,2-2,3.99-4.04,6.05-5.92,4.07-3.88,8.35-7.37,12.67-10.81,4.33-3.41,8.78-6.6,13.32-9.64,2.28-1.51,4.57-2.99,6.9-4.44,2.35-1.49,4.61-2.8,7.25-4.26l12.46,22.04Z"/><path class="cls-14" d="M278.87,439.76c-2.98,1.54-9.57,3.45-12.47,4.31-.71.21-1.15.91-1.05,1.64.27,2.01.67,3.45,1.78,3.58,1.33.15,13.41-4.12,14.27-5.68.48-.88-.02-2.2-.56-3.2-.38-.71-1.26-1.02-1.98-.65Z"/><path class="cls-2" d="M336.94,430.92l-24.6-60.61c-1.81-4.46-6.99-6.84-11.57-5.3l-70.12,23.54c-4.58,1.54-6.82,6.4-5.01,10.87l24.6,60.61c1.81,4.46,6.99,6.84,11.57,5.3l70.12-23.54c4.58-1.54,6.82-6.4,5.01-10.87Z"/><path class="cls-16" d="M336.94,430.92l-24.6-60.61c-1.81-4.46-6.99-6.84-11.57-5.3l-70.12,23.54c-4.58,1.54-6.82,6.4-5.01,10.87l24.6,60.61c1.81,4.46,6.99,6.84,11.57,5.3l70.12-23.54c4.58-1.54,6.82-6.4,5.01-10.87Z"/><path class="cls-14" d="M390.11,291.81c-.3,1.21.1,2.36.89,2.55.79.2,1.68-.63,1.98-1.84.3-1.21-.1-2.36-.89-2.55-.79-.2-1.68.63-1.98,1.84Z"/><path class="cls-9" d="M390.1,294.14s1.03,7.68,3.24,11.81c-2.64,1.47-6.07-.34-6.07-.34l2.83-11.47Z"/><path class="cls-14" d="M387.47,284.02c.14.04.3.03.45-.03,3.04-1.22,5.27.3,5.3.32.33.23.79.15,1.02-.18.23-.33.15-.79-.18-1.02-.12-.08-2.92-2-6.69-.48-.38.15-.56.58-.41.96.09.23.28.38.51.44Z"/><path class="cls-15" d="M347.47,296.14c-.56,11.54-3.38,32.25-12.9,37.7,0,0,.25,11.91,20.71,16.96,22.5,5.55,13.51-8.51,13.51-8.51-11.55-5.96-8.99-14.99-4.74-23.02l-16.58-23.12Z"/><path class="cls-14" d="M330.68,336.94c-.74-3.93-1.52-8.42,2.47-8.78,4.38-.4,26.85,3.64,33.83,8.14,6.98,4.5,3.05,11.14,3.05,11.14l-39.35-10.5Z"/><path class="cls-2" d="M224,835.88c1.21,1.03,2.54,1.84,3.5,1.63.4-.09.92-.39,1.12-1.34.1-.5,0-.97-.33-1.4-1.38-1.87-6.54-2.4-6.76-2.43-.14-.01-.28.06-.36.18-.07.13-.06.28.02.4.48.66,1.58,1.92,2.8,2.95ZM227.39,834.89c.12.1.23.21.31.33.19.26.26.53.2.82-.14.68-.45.74-.55.77-1.07.23-3.49-1.8-5.01-3.6,1.55.24,3.98.78,5.05,1.69Z"/><path class="cls-2" d="M221.26,833s.1.07.16.08c1.79.37,6.35-.21,7.22-1.74.16-.28.33-.84-.27-1.49-.39-.42-.89-.64-1.5-.65-2.33-.04-5.5,3.13-5.64,3.26-.09.1-.13.23-.09.36.02.07.06.13.11.17ZM227.71,830.23s.08.07.12.12c.33.35.22.55.17.63-.51.9-3.68,1.58-5.68,1.47.98-.88,3.05-2.55,4.54-2.52.34,0,.62.11.85.3Z"/><path class="cls-2" d="M340.13,865.62c1.99,0,3.88-.27,4.43-1.17.19-.31.32-.85-.2-1.61-.29-.43-.71-.71-1.25-.86-2.65-.7-7.75,2.39-7.97,2.52-.12.08-.18.23-.14.38s.17.27.32.3c1.01.2,2.95.44,4.8.44ZM342.27,862.62c.26,0,.5.03.72.08.35.09.6.26.77.51.31.46.24.68.16.81-.62,1-4.53,1.02-7.46.62,1.36-.74,4-2.03,5.81-2.03Z"/><path class="cls-2" d="M335.4,865.19c.05,0,.1-.01.15-.03,1.78-.84,5.14-4.19,4.68-5.95-.11-.41-.45-.92-1.47-1.03-.76-.08-1.42.14-1.97.63-1.8,1.62-1.79,5.79-1.79,5.97,0,.13.07.26.19.33.07.05.15.07.22.07ZM338.53,858.91c.07,0,.15,0,.22.01.67.07.74.33.76.41.28,1.05-1.97,3.69-3.76,4.83.07-1.22.37-3.72,1.55-4.78.36-.32.76-.48,1.23-.48Z"/><polygon class="cls-15" points="318.51 864.83 334.02 864.83 335.56 828.93 320.06 828.93 318.51 864.83"/><polygon class="cls-15" points="205.61 828.47 220.61 832.39 237.22 799.62 222.23 795.7 205.61 828.47"/><path class="cls-14" d="M221.78,830.6l-13.28-11.27c-.48-.41-1.19-.43-1.69-.05l-11.25,8.52c-1.17.88-1.19,2.64-.05,3.57,4.7,3.85,7.19,5.49,13.03,10.45,3.59,3.05,11.26,11.77,15.9,16.33,4.54,4.46,9.76.57,8.27-1.72-6.69-10.24-8.92-18.39-9.61-23.49-.12-.92-.6-1.76-1.3-2.36Z"/><path class="cls-14" d="M333.53,863.03h-16.93c-.63,0-1.14.44-1.21,1.06l-1.64,13.78c-.17,1.43,1.06,2.78,2.52,2.76,6.1-.1,14.88-.46,22.56-.46,8.98,0,10.49.49,21.01.49,6.36,0,7.47-6.43,4.74-7.02-12.4-2.65-16.05-2.94-27.19-9.4-1.21-.7-2.52-1.21-3.86-1.21Z"/><path class="cls-2" d="M391.44,362.34c-1.18,15.65-7.06,48.89-29.46,116.39l-81.49-15.35c1.55-10.9,16.2-56.81,19.54-108.57.93-14.4,13.87-25.1,28.16-23.16.13.02.27.04.4.06,10.51,1.46,25.64,3.97,34.64,6.52,5.67,1.61,12.27,4.27,17.62,6.6,6.89,3,11.15,10,10.58,17.5Z"/><path class="cls-8" d="M375.97,371.82c-.55,8.8,2.74,27.48,5.61,41.68,2.64-10.17,4.62-18.78,6.08-26.06l-11.69-15.62Z"/><path class="cls-2" d="M391.16,357.56c1.95,4.86,4.07,10.14,6.26,15.15,2.23,5.05,4.42,10.1,6.8,15.04,4.68,9.86,9.72,19.59,15.49,27.94,1.44,2.06,2.91,4.08,4.43,5.82l.28.34s-.06-.05-.1-.07c-.08-.03-.1-.05-.15-.06-.04,0-.06.06.06.14.19.18.75.47,1.48.73,1.49.53,3.66.9,5.97,1.07,2.33.17,4.85.24,7.43.15,10.36-.33,21.58-2.08,32.42-3.84l4.04,11.88c-5.48,2.7-10.88,4.88-16.56,6.84-5.66,1.95-11.48,3.61-17.65,4.76-3.09.56-6.28,1.04-9.65,1.22-3.39.16-6.95.15-11.03-.61-2.04-.4-4.22-.97-6.58-2.09-1.16-.54-2.39-1.25-3.58-2.09-.6-.45-1.2-.9-1.78-1.44l-.87-.81-.44-.45c-2.41-2.39-4.5-4.85-6.52-7.33-7.9-9.96-13.86-20.36-19.35-30.93-2.67-5.31-5.25-10.63-7.56-16.06-2.34-5.47-4.57-10.75-6.62-16.59l23.78-8.71Z"/><path class="cls-8" d="M537.99,408.94l-29.25-5.83c-2.16-.43-4.37.95-4.93,3.08l-8.64,32.67c-.56,2.13.73,4.21,2.89,4.64l29.25,5.83c2.16.43,4.37-.95,4.93-3.08l8.64-32.67c.56-2.13-.73-4.21-2.89-4.64Z"/><path class="cls-10" d="M527.81,393.93l-29.12-6.47c-2.15-.48-4.39.85-5,2.97l-9.35,32.47c-.61,2.12.64,4.22,2.79,4.7l29.12,6.47c2.15.48,4.39-.85,5-2.97l9.35-32.47c.61-2.12-.64-4.22-2.79-4.7Z"/><path class="cls-15" d="M468.86,422.29l9.21-13.52,14.61,13.37s-7.59,10.35-18.87,9.73l-4.95-9.58Z"/><path class="cls-14" d="M465.88,421.7c1.62,2.94,3.69,9.48,4.62,12.36.23.7.94,1.13,1.66,1.01,2-.32,3.44-.76,3.54-1.87.12-1.33-4.45-13.31-6.04-14.13-.89-.46-2.2.08-3.18.64-.71.4-.99,1.28-.6,1.99Z"/><path class="cls-15" d="M495.97,406.7l1.81,3.51c1.48,2.86.87,6.35-1.48,8.55l-3.62,3.38-14.61-13.37,7.68-4.85c3.56-2.25,8.28-.96,10.22,2.78Z"/><polygon class="cls-8" points="335.56 828.94 334.69 849.12 319.18 849.12 320.05 828.94 335.56 828.94"/><polygon class="cls-8" points="222.22 795.71 237.22 799.63 228.02 817.77 213.65 812.6 222.22 795.71"/><path class="cls-15" d="M350.25,279.24c-2.76,15.14-5.15,23.85.49,33.36,8.49,14.31,28.57,12.02,35.8-1.98,6.51-12.61,9.94-35.24-3.19-44.77-12.94-9.39-30.34-1.74-33.1,13.39Z"/><path class="cls-14" d="M376.19,294.07c7.72,2.99,12.34-8.1,10.35-12.09,2.55-1.54,12.73-3.91,11.54-11.72s-8.88-10.07-14.5-20.35c-1.91,1-1.39,7.27-1.39,7.27,0,0-4.63-8.18-16.62-8.09-11.99.09-16.53-4.82-16.53-4.82,0,0,.9,7.81,5.36,9.72-6.72,1.91-6.72,12.45-16.26,13.63,2.18,4.09,7.5,4,7.5,4,0,0-5.5,4.76-4.41,10.74,1.09,5.98,7.45,20.33-.18,25.33,16.53,6,38.43-.67,35.16-13.62Z"/><path class="cls-15" d="M372.6,291.61c-.95,3.92-.28,8.08,1.14,11.11,2.14,4.55,6.19,3.37,8.09-.79,1.71-3.74,2.67-10.62-.68-13.8-3.3-3.13-7.47-1-8.56,3.48Z"/><path class="cls-2" d="M333.08,473.29s-21.06,115.68-30.72,160.06c-10.58,48.6-64.4,178.65-64.4,178.65l-27.01-8.71s33.79-123.84,49.03-172.66c3.18-52.1,9.66-134.54,20.51-167.24l52.58,9.9Z"/><path class="cls-17" d="M333.08,473.29s-21.06,115.68-30.72,160.06c-10.58,48.6-64.4,178.65-64.4,178.65l-27.01-8.71s33.79-123.84,49.03-172.66c3.18-52.1,9.66-134.54,20.51-167.24l52.58,9.9Z"/><path class="cls-2" d="M243.7,806.28c.12.04-6.2,9.44-6.2,9.44l-30.34-9.99,3.6-9.06,32.94,9.61Z"/><path class="cls-4" d="M323.52,513.73c-19.73,3.17-18.3,61.75-15.98,94.45,5.74-28.59,12.83-66.22,18.06-94.45-.99-.04-1.75-.06-2.09,0Z"/><path class="cls-2" d="M361.98,478.73s4.39,107.67,2.7,154.95c-1.75,49.17-24.14,210.18-24.14,210.18h-26.26s-.57-154.77,5.49-206.16c-1.27-52.65-11.35-169.05-11.35-169.05l53.56,10.09Z"/><path class="cls-17" d="M361.98,478.73s4.39,107.67,2.7,154.95c-1.75,49.17-24.14,210.18-24.14,210.18h-26.26s-.57-154.77,5.49-206.16c-1.27-52.65-11.35-169.05-11.35-169.05l53.56,10.09Z"/><path class="cls-2" d="M345.59,833.4c.12,0-1.48,10.9-1.48,10.9h-31.95l-.86-9.73,34.29-1.17Z"/><path class="cls-14" d="M280.5,460.43c-2.69-.12-2.87,6.33-1.99,8.22.88,1.89,12.66,3.04,44.08,10.09,31.42,7.04,39.19,7.42,40.15,6.99.97-.44,2.99-9.14,1.06-9.41s-34.19-5.45-47.87-8.62c-13.68-3.17-31.59-7.09-35.42-7.27Z"/></g></svg>